<svg xmlns="http://www.w3.org/2000/svg" viewBox="0 0 537 242" width="537" height="242"><defs><clipPath id="artboard-10413712638787243405"><rect x="0" y="0" width="537" height="242"/></clipPath></defs><g transform="matrix(1,0,0,1,0,-6)">
<rect fill="#fefefe" fill-opacity="0" x="0" y="6" width="537" height="242"/>
<g transform="matrix(1,0,0,1,0,6)" clip-path="url(#artboard-10413712638787243405)">
	<g>
		<g>
			<g transform="matrix(1,0,0,1,-806.5,-314.2)">
				<path d="M843.744579,461.732132C843.744579,461.732132 895.641939,431.769177 895.641939,431.769177 C895.641939,431.769177 947.539299,461.732132 947.539299,461.732132 C947.539299,461.732132 895.641939,491.695086 895.641939,491.695086 C895.641939,491.695086 843.744579,461.732132 843.744579,461.732132 Z" fill="#b56576" stroke="#000000" stroke-linecap="round" stroke-linejoin="round"/>
			</g>
			<g transform="matrix(1,0,0,1,-806.5,-314.2)">
				<path d="M843.744579,461.732132C843.744579,461.732132 895.641939,491.695086 895.641939,491.695086 C895.641939,491.695086 895.641939,533.069657 895.641939,533.069657 C895.641939,533.069657 843.744579,503.106702 843.744579,503.106702 C843.744579,503.106702 843.744579,461.732132 843.744579,461.732132 Z" fill="#e56b6f" stroke="#000000" stroke-linecap="round" stroke-linejoin="bevel"/>
			</g>
			<g transform="matrix(1,0,0,1,-806.5,-314.2)">
				<path d="M895.641939,491.695086C895.641939,491.695086 895.641939,533.069657 895.641939,533.069657 C895.641939,533.069657 947.539299,503.106702 947.539299,503.106702 C947.539299,503.106702 947.539299,461.732132 947.539299,461.732132 C947.539299,461.732132 895.641939,491.695086 895.641939,491.695086 Z" fill="#eaac8b" stroke="#000000" stroke-linecap="round" stroke-linejoin="bevel"/>
			</g>
		</g>
	</g>
	<g transform="matrix(1,0,0,1,0,-47.5)">
		<g>
			<g transform="matrix(1,0,0,1,-806.5,-314.2)">
				<path d="M843.744579,461.732132C843.744579,461.732132 895.641939,431.769177 895.641939,431.769177 C895.641939,431.769177 947.539299,461.732132 947.539299,461.732132 C947.539299,461.732132 895.641939,491.695086 895.641939,491.695086 C895.641939,491.695086 843.744579,461.732132 843.744579,461.732132 Z" fill="#b56576" stroke="#000000" stroke-linecap="round" stroke-linejoin="round"/>
			</g>
			<g transform="matrix(1,0,0,1,-806.5,-314.2)">
				<path d="M843.744579,461.732132C843.744579,461.732132 895.641939,491.695086 895.641939,491.695086 C895.641939,491.695086 895.641939,533.069657 895.641939,533.069657 C895.641939,533.069657 843.744579,503.106702 843.744579,503.106702 C843.744579,503.106702 843.744579,461.732132 843.744579,461.732132 Z" fill="#e56b6f" stroke="#000000" stroke-linecap="round" stroke-linejoin="bevel"/>
			</g>
			<g transform="matrix(1,0,0,1,-806.5,-314.2)">
				<path d="M895.641939,491.695086C895.641939,491.695086 895.641939,533.069657 895.641939,533.069657 C895.641939,533.069657 947.539299,503.106702 947.539299,503.106702 C947.539299,503.106702 947.539299,461.732132 947.539299,461.732132 C947.539299,461.732132 895.641939,491.695086 895.641939,491.695086 Z" fill="#eaac8b" stroke="#000000" stroke-linecap="round" stroke-linejoin="bevel"/>
			</g>
		</g>
	</g>
	<g transform="matrix(1,0,0,1,0,-95)">
		<g>
			<g transform="matrix(1,0,0,1,-806.5,-314.2)">
				<path d="M843.744579,461.732132C843.744579,461.732132 895.641939,431.769177 895.641939,431.769177 C895.641939,431.769177 947.539299,461.732132 947.539299,461.732132 C947.539299,461.732132 895.641939,491.695086 895.641939,491.695086 C895.641939,491.695086 843.744579,461.732132 843.744579,461.732132 Z" fill="#b56576" stroke="#000000" stroke-linecap="round" stroke-linejoin="round"/>
			</g>
			<g transform="matrix(1,0,0,1,-806.5,-314.2)">
				<path d="M843.744579,461.732132C843.744579,461.732132 895.641939,491.695086 895.641939,491.695086 C895.641939,491.695086 895.641939,533.069657 895.641939,533.069657 C895.641939,533.069657 843.744579,503.106702 843.744579,503.106702 C843.744579,503.106702 843.744579,461.732132 843.744579,461.732132 Z" fill="#e56b6f" stroke="#000000" stroke-linecap="round" stroke-linejoin="bevel"/>
			</g>
			<g transform="matrix(1,0,0,1,-806.5,-314.2)">
				<path d="M895.641939,491.695086C895.641939,491.695086 895.641939,533.069657 895.641939,533.069657 C895.641939,533.069657 947.539299,503.106702 947.539299,503.106702 C947.539299,503.106702 947.539299,461.732132 947.539299,461.732132 C947.539299,461.732132 895.641939,491.695086 895.641939,491.695086 Z" fill="#eaac8b" stroke="#000000" stroke-linecap="round" stroke-linejoin="bevel"/>
			</g>
		</g>
	</g>
	<g>
		<g>
			<path d="M182.111865,51.09778Q191.513465,51.09778 196.847065,52.969512 Q202.180665,54.841244 204.440665,59.406444 Q206.700665,63.971644 206.700665,72.189004 Q206.700665,80.406364 204.576265,84.925912 Q202.451865,89.44546 197.570265,91.27154 Q192.688665,93.09762 184.462265,93.09762 Q180.123065,93.09762 175.829065,92.686752 Q171.535065,92.275884 167.828665,91.591104 Q164.122265,90.906324 161.500665,90.13024 Q158.879065,89.354156 157.884665,88.806332 Q158.155865,80.77158 158.155865,80.77158 Q163.760665,80.77158 169.817465,80.77158 Q175.874265,80.77158 181.750265,80.77158 Q184.914265,80.680276 186.631865,79.995496 Q188.349465,79.310716 189.027465,77.438984 Q189.705465,75.567252 189.705465,72.189004 Q189.705465,68.719452 189.027465,66.802068 Q188.349465,64.884684 186.631865,64.199904 Q184.914265,63.515124 181.750265,63.515124 Q172.981465,63.515124 166.743865,63.606428 Q160.506265,63.697732 158.246265,63.971644 Q156.890265,52.01082 156.890265,52.01082 Q160.867865,51.5543 164.393465,51.371692 Q167.919065,51.189084 172.077465,51.143432 Q176.235865,51.09778 182.111865,51.09778 Q182.111865,51.09778 182.111865,51.09778 ZM173.885465,52.01082C173.885465,52.01082 173.885465,115.01058 173.885465,115.01058 C173.885465,115.01058 156.890265,115.01058 156.890265,115.01058 C156.890265,115.01058 156.890265,52.01082 156.890265,52.01082 C156.890265,52.01082 173.885465,52.01082 173.885465,52.01082 C173.885465,52.01082 173.885465,52.01082 173.885465,52.01082 ZM240.239065,50.732564Q248.013465,50.732564 253.347065,52.284732 Q258.680665,53.8369 262.025465,57.534712 Q265.370265,61.232524 266.816665,67.5325 Q268.263065,73.832476 268.263065,83.5107 Q268.263065,93.09762 266.816665,99.443248 Q265.370265,105.788876 262.025465,109.486688 Q258.680665,113.1845 253.347065,114.736668 Q248.013465,116.288836 240.239065,116.288836 Q232.555065,116.288836 227.176265,114.736668 Q221.797465,113.1845 218.452665,109.486688 Q215.107865,105.788876 213.661465,99.443248 Q212.215065,93.09762 212.215065,83.5107 Q212.215065,73.832476 213.661465,67.5325 Q215.107865,61.232524 218.452665,57.534712 Q221.797465,53.8369 227.176265,52.284732 Q232.555065,50.732564 240.239065,50.732564 Q240.239065,50.732564 240.239065,50.732564 ZM240.239065,63.789036Q236.261465,63.789036 234.046665,65.432508 Q231.831865,67.07598 230.927865,71.367268 Q230.023865,75.658556 230.023865,83.5107 Q230.023865,91.362844 230.927865,95.654132 Q231.831865,99.94542 234.046665,101.588892 Q236.261465,103.232364 240.239065,103.232364 Q244.216665,103.232364 246.431465,101.588892 Q248.646265,99.94542 249.505065,95.654132 Q250.363865,91.362844 250.363865,83.5107 Q250.363865,75.658556 249.505065,71.367268 Q248.646265,67.07598 246.431465,65.432508 Q244.216665,63.789036 240.239065,63.789036 Q240.239065,63.789036 240.239065,63.789036 ZM293.936665,52.01082C293.936665,52.01082 293.936665,97.388908 293.936665,97.388908 Q293.936665,99.214988 295.111865,100.264984 Q296.287065,101.31498 298.275865,101.31498 Q319.610265,101.31498 319.610265,101.31498 C319.610265,101.31498 320.423865,114.188844 320.423865,114.188844 Q313.643865,115.01058 306.140665,115.147536 Q298.637465,115.284492 291.315065,115.284492 Q284.535065,115.284492 280.783465,111.449724 Q277.031865,107.614956 277.031865,101.497588 Q277.031865,52.01082 277.031865,52.01082 C277.031865,52.01082 293.936665,52.01082 293.936665,52.01082 C293.936665,52.01082 293.936665,52.01082 293.936665,52.01082 ZM370.867065,52.01082C370.867065,52.01082 349.803865,95.654132 349.803865,95.654132 C349.803865,95.654132 333.622265,95.654132 333.622265,95.654132 C333.622265,95.654132 312.559065,52.01082 312.559065,52.01082 C312.559065,52.01082 330.096665,52.01082 330.096665,52.01082 C330.096665,52.01082 339.136665,73.375956 339.136665,73.375956 Q339.950265,75.29334 340.357065,77.530288 Q340.763865,79.767236 341.215865,81.775924 Q342.300665,81.775924 342.300665,81.775924 Q342.662265,79.767236 343.159465,77.484636 Q343.656665,75.202036 344.379865,73.284652 Q353.329465,52.01082 353.329465,52.01082 C353.329465,52.01082 370.867065,52.01082 370.867065,52.01082 C370.867065,52.01082 370.867065,52.01082 370.867065,52.01082 ZM350.255865,85.701996C350.255865,85.701996 350.255865,115.01058 350.255865,115.01058 C350.255865,115.01058 333.260665,115.01058 333.260665,115.01058 C333.260665,115.01058 333.260665,85.701996 333.260665,85.701996 C333.260665,85.701996 350.255865,85.701996 350.255865,85.701996 C350.255865,85.701996 350.255865,85.701996 350.255865,85.701996 ZM173.614265,125.05402C173.614265,125.05402 173.614265,170.432108 173.614265,170.432108 Q173.614265,172.258188 174.789465,173.308184 Q175.964665,174.35818 177.953465,174.35818 Q199.287865,174.35818 199.287865,174.35818 C199.287865,174.35818 200.101465,187.232044 200.101465,187.232044 Q193.321465,188.05378 185.818265,188.190736 Q178.315065,188.327692 170.992665,188.327692 Q164.212665,188.327692 160.461065,184.492924 Q156.709465,180.658156 156.709465,174.540788 Q156.709465,125.05402 156.709465,125.05402 C156.709465,125.05402 173.614265,125.05402 173.614265,125.05402 C173.614265,125.05402 173.614265,125.05402 173.614265,125.05402 ZM223.243865,125.05402C223.243865,125.05402 223.243865,188.05378 223.243865,188.05378 C223.243865,188.05378 206.429465,188.05378 206.429465,188.05378 C206.429465,188.05378 206.429465,125.05402 206.429465,125.05402 C206.429465,125.05402 223.243865,125.05402 223.243865,125.05402 C223.243865,125.05402 223.243865,125.05402 223.243865,125.05402 ZM265.008665,125.05402C265.008665,125.05402 265.008665,188.05378 265.008665,188.05378 C265.008665,188.05378 248.013465,188.05378 248.013465,188.05378 C248.013465,188.05378 248.013465,125.05402 248.013465,125.05402 C248.013465,125.05402 265.008665,125.05402 265.008665,125.05402 C265.008665,125.05402 265.008665,125.05402 265.008665,125.05402 ZM282.998265,125.05402C282.998265,125.05402 282.998265,138.110492 282.998265,138.110492 C282.998265,138.110492 229.933465,138.110492 229.933465,138.110492 C229.933465,138.110492 229.933465,125.05402 229.933465,125.05402 C229.933465,125.05402 282.998265,125.05402 282.998265,125.05402 C282.998265,125.05402 282.998265,125.05402 282.998265,125.05402 ZM306.592665,125.05402C306.592665,125.05402 306.592665,188.05378 306.592665,188.05378 C306.592665,188.05378 289.687865,188.05378 289.687865,188.05378 C289.687865,188.05378 289.687865,125.05402 289.687865,125.05402 C289.687865,125.05402 306.592665,125.05402 306.592665,125.05402 C306.592665,125.05402 306.592665,125.05402 306.592665,125.05402 ZM326.299865,148.427844C326.299865,148.427844 326.299865,160.753884 326.299865,160.753884 C326.299865,160.753884 305.869465,160.753884 305.869465,160.753884 C305.869465,160.753884 305.869465,148.427844 305.869465,148.427844 C305.869465,148.427844 326.299865,148.427844 326.299865,148.427844 C326.299865,148.427844 326.299865,148.427844 326.299865,148.427844 ZM342.300665,125.05402C342.300665,125.05402 342.300665,188.05378 342.300665,188.05378 C342.300665,188.05378 325.305465,188.05378 325.305465,188.05378 C325.305465,188.05378 325.305465,125.05402 325.305465,125.05402 C325.305465,125.05402 342.300665,125.05402 342.300665,125.05402 C342.300665,125.05402 342.300665,125.05402 342.300665,125.05402 ZM370.143865,125.05402C370.143865,125.05402 370.143865,188.05378 370.143865,188.05378 C370.143865,188.05378 353.329465,188.05378 353.329465,188.05378 C353.329465,188.05378 353.329465,125.05402 353.329465,125.05402 C353.329465,125.05402 370.143865,125.05402 370.143865,125.05402 C370.143865,125.05402 370.143865,125.05402 370.143865,125.05402 ZM406.575065,123.958372Q411.275865,123.958372 414.575465,124.232284 Q417.875065,124.506196 420.632265,124.962716 Q423.389465,125.419236 426.282265,126.240972 Q425.016665,138.840924 425.016665,138.840924 Q421.943065,138.658316 419.321465,138.612664 Q416.699865,138.567012 413.716665,138.52136 Q410.733465,138.475708 406.575065,138.475708 Q402.868665,138.475708 400.744265,140.027876 Q398.619865,141.580044 397.806265,145.506116 Q396.992665,149.432188 396.992665,156.5539 Q396.992665,163.675612 397.806265,167.601684 Q398.619865,171.527756 400.744265,173.079924 Q402.868665,174.632092 406.575065,174.632092 Q413.174265,174.632092 417.558665,174.449484 Q421.943065,174.266876 426.372665,173.810356 Q427.638265,186.319004 427.638265,186.319004 Q423.118265,187.871172 418.372265,188.5103 Q413.626265,189.149428 406.575065,189.149428 Q396.540665,189.149428 390.529065,185.99944 Q384.517465,182.849452 381.850665,175.72774 Q379.183865,168.606028 379.183865,156.5539 Q379.183865,144.501772 381.850665,137.38006 Q384.517465,130.258348 390.529065,127.10836 Q396.540665,123.958372 406.575065,123.958372 Q406.575065,123.958372 406.575065,123.958372 Z" fill="#6d597a"/>
		</g>
	</g>
</g></g></svg>